<svg width="10" height="6" viewBox="0 0 10 6" fill="none" xmlns="http://www.w3.org/2000/svg">
    <path d="M1.80505 3.29167L3.9838 5.47042C4.04058 5.5272 4.07033 5.59409 4.07305 5.67109C4.07538 5.74809 4.04563 5.81867 3.9838 5.88283C3.91925 5.94739 3.84983 5.98006 3.77555 5.98084C3.70127 5.98161 3.63186 5.95011 3.5673 5.88634L1.01113 3.32959C0.916635 3.23547 0.869385 3.12561 0.869385 3C0.869385 2.87439 0.916635 2.76434 1.01113 2.66984L3.5673 0.113669C3.62447 0.0568912 3.69194 0.0271413 3.76972 0.0244191C3.84788 0.0216968 3.91925 0.0526135 3.9838 0.117169C4.04602 0.181336 4.07752 0.249974 4.0783 0.323085C4.07947 0.396585 4.04797 0.465419 3.9838 0.529586L1.80505 2.70834H9.02672C9.10994 2.70834 9.17955 2.73614 9.23555 2.79175C9.29155 2.84736 9.31936 2.91678 9.31897 3C9.31858 3.08322 9.29077 3.15264 9.23555 3.20825C9.18033 3.26386 9.11091 3.29167 9.0273 3.29167H1.80505Z" fill="white"/>
</svg>
