<svg width="160" height="52" viewBox="0 0 160 52" fill="none" xmlns="http://www.w3.org/2000/svg">
    <mask id="mask0_1183_349" style="mask-type:luminance" maskUnits="userSpaceOnUse" x="0" y="0" width="160" height="52">
        <path d="M159.711 0H0.289551V52H159.711V0Z" fill="white"/>
    </mask>
    <g mask="url(#mask0_1183_349)">
        <path d="M12.7898 27.1565L12.8729 26.9163L13.4197 26.8903C13.7787 26.889 14.0394 26.8089 14.2019 26.65C14.3805 26.4966 14.5223 26.2679 14.6276 25.9636L18.9722 13.403C19.0829 13.0828 19.1155 12.8073 19.0699 12.5764C19.0402 12.351 18.8847 12.1269 18.6033 11.9041L18.1894 11.5458L18.2725 11.3057L24.3726 13.4156L24.2896 13.6558L23.8232 13.6827C23.4802 13.6896 23.2195 13.7696 23.0409 13.923C22.8679 14.0604 22.726 14.2892 22.6152 14.6094L20.5967 20.4454L26.3366 22.4308L28.3552 16.5948C28.466 16.2745 28.4958 16.007 28.4446 15.7921C28.415 15.5668 28.2595 15.3426 27.978 15.1199L27.6039 14.8022L27.687 14.562L33.8111 16.6803L33.7281 16.9205L33.1813 16.9465C32.8383 16.9533 32.5776 17.0335 32.399 17.1868C32.2205 17.3402 32.0758 17.5769 31.9651 17.8972L27.6205 30.4578C27.5153 30.762 27.4855 31.0295 27.5311 31.2605C27.5767 31.4914 27.7323 31.7155 27.9977 31.9328L28.4115 32.291L28.3285 32.5312L22.2043 30.4129L22.2874 30.1727L22.7695 30.1782C23.134 30.1608 23.3948 30.0807 23.5517 29.9378C23.7303 29.7845 23.8749 29.5477 23.9857 29.2275L26.1705 22.9111L20.4305 20.9257L18.2457 27.2421C18.0409 27.8345 18.1638 28.3341 18.6147 28.7411L18.9731 29.0264L18.89 29.2665L12.7898 27.1565Z" fill="black"/>
        <path d="M29.3506 32.5963L29.4065 32.3475L30.0783 32.2663C30.4395 32.2098 30.7318 32.1112 30.955 31.9707C31.1821 31.8134 31.3927 31.574 31.5868 31.2522L40.0096 17.7209L42.1225 18.2067L43.8445 34.1748C43.8952 34.5703 43.981 34.8866 44.1021 35.1238C44.2268 35.3444 44.4483 35.5611 44.7665 35.7738L45.0425 35.942L44.9866 36.1908L38.6725 34.7393L38.7284 34.4904L39.1292 34.4517C39.5071 34.399 39.7552 34.2641 39.8736 34.047C40.0123 33.8172 40.0692 33.525 40.0443 33.1703L39.6805 29.3179L34.1619 28.0492L32.1809 31.2841C31.983 31.6225 31.8764 31.9033 31.8611 32.1266C31.8624 32.3537 32.0221 32.5737 32.3404 32.7864L32.837 33.1361L32.7811 33.3849L29.3506 32.5963ZM34.4477 27.5915L39.6431 28.7859L38.8699 20.4687L34.4477 27.5915Z" fill="black"/>
        <path d="M45.6956 36.2611L45.7312 36.0098L46.259 35.9024C46.6087 35.8476 46.8479 35.7265 46.977 35.5392C47.1228 35.3541 47.2194 35.094 47.2668 34.7589L49.1292 21.5887C49.1767 21.2535 49.1559 20.9775 49.0669 20.7604C48.978 20.5433 48.7741 20.3533 48.4554 20.1902L48.0059 19.924L48.0415 19.6726L54.1533 20.506C56.6517 20.8467 58.389 21.5534 59.3653 22.6258C60.3608 23.6839 60.7531 24.9585 60.5422 26.4498C60.4072 27.4049 60.048 28.2525 59.4647 28.9929C58.9007 29.7186 58.0572 30.2441 56.9346 30.5692C55.8119 30.8943 54.3534 30.9346 52.5593 30.6899L51.7041 30.5733L51.0502 35.198C50.9577 35.8514 51.2243 36.3233 51.8498 36.6136L52.5723 36.9426L52.5368 37.194L45.6956 36.2611ZM51.7752 30.0706L52.731 30.201C53.5526 30.313 54.2423 30.2704 54.8 30.0732C55.3577 29.876 55.8097 29.4593 56.156 28.8234C56.5023 28.1875 56.7596 27.2747 56.9277 26.085C57.0984 24.8786 57.0885 23.9208 56.8983 23.2117C56.7248 22.5048 56.3876 21.9892 55.8865 21.6647C55.3879 21.3234 54.7361 21.0979 53.9312 20.9881L53.0761 20.8715L51.7752 30.0706Z" fill="black"/>
        <path d="M59.6174 38.1333L59.6352 37.8798L60.1547 37.738C60.4999 37.6604 60.7303 37.5238 60.846 37.3282C60.9786 37.1337 61.0568 36.8675 61.0806 36.5295L62.0164 23.2462C62.0402 22.9082 62.0001 22.6336 61.8961 22.4226C61.7921 22.2114 61.5753 22.0347 61.2456 21.8926L60.7782 21.656L60.7961 21.4025L66.9561 21.8364C69.4741 22.0138 71.2579 22.6065 72.3081 23.6147C73.3762 24.607 73.8572 25.8552 73.7511 27.3593C73.6834 28.3226 73.3844 29.1932 72.8534 29.971C72.3417 30.7332 71.5363 31.3133 70.4382 31.7115C69.34 32.1097 67.8872 32.2451 66.0789 32.1177L65.217 32.057L64.8883 36.7213C64.8419 37.3804 65.1411 37.8346 65.786 38.0838L66.5303 38.3656L66.5124 38.6191L59.6174 38.1333ZM65.2527 31.55L66.216 31.6179C67.0441 31.6762 67.7296 31.5886 68.2725 31.3551C68.8152 31.1216 69.2374 30.6759 69.5384 30.0177C69.8395 29.3596 70.0324 28.4305 70.1173 27.2306C70.2028 26.0139 70.1262 25.0574 69.886 24.3611C69.6637 23.6661 69.2908 23.1728 68.7673 22.8812C68.2459 22.5727 67.5795 22.3898 66.7683 22.3327L65.9064 22.272L65.2527 31.55Z" fill="black"/>
        <path d="M77.1174 39.094L77.1188 38.8399L77.8831 38.6423C78.477 38.4774 78.7767 38.056 78.7821 37.3784L78.8184 32.5501L74.6892 23.9803C74.5393 23.6403 74.397 23.3851 74.2629 23.2147C74.1459 23.0444 73.9605 22.899 73.7073 22.7785L73.2517 22.5464L73.2537 22.2922L80.0637 22.3433L80.0616 22.5975L79.6032 22.7719C79.2296 22.9216 79.0243 23.1318 78.9888 23.4026C78.9525 23.6565 79.0182 23.9789 79.1844 24.3698L82.1334 31.0502L85.5394 24.1634C85.6769 23.8934 85.7296 23.6142 85.6981 23.3259C85.6831 23.0378 85.5072 22.8501 85.1685 22.7629L84.8141 22.6332L84.8155 22.3791L87.865 22.4019L87.863 22.656L87.3792 22.8303C87.0563 22.9465 86.8182 23.1141 86.6635 23.3332C86.5096 23.5353 86.3557 23.7968 86.2003 24.1175L82.6643 31.41L82.6192 37.4072C82.6164 37.746 82.6739 38.026 82.7909 38.2471C82.925 38.4514 83.1522 38.5972 83.4738 38.6843L84.2599 38.8935L84.2579 39.1476L77.1174 39.094Z" fill="black"/>
        <path d="M88.5985 39.0771L88.5834 38.823L89.0302 38.6195C89.3607 38.4649 89.5796 38.2826 89.6857 38.0727C89.8088 37.8618 89.8608 37.5869 89.8403 37.2482L89.0446 23.9843C89.0234 23.6286 88.9385 23.3528 88.7907 23.1572C88.66 22.9606 88.4219 22.8125 88.0757 22.7129L87.6077 22.5608L87.592 22.3067L94.8864 21.8969C96.9534 21.7808 98.4675 22.0781 99.4282 22.789C100.389 23.483 100.902 24.4059 100.972 25.5578C101.024 26.4218 100.732 27.2285 100.097 27.978C99.4774 28.7097 98.3635 29.2652 96.7536 29.6445C98.6297 29.7431 100.023 30.1578 100.935 30.8884C101.845 31.6022 102.332 32.5096 102.399 33.6107C102.431 34.1528 102.345 34.71 102.142 35.2823C101.937 35.8377 101.561 36.3603 101.012 36.85C100.48 37.3388 99.7313 37.7548 98.7658 38.098C97.799 38.4243 96.562 38.6297 95.054 38.7144L88.5985 39.0771ZM93.169 29.8205L94.2617 29.7591C95.3968 29.6953 96.1946 29.3871 96.6544 28.8343C97.1313 28.2806 97.3304 27.3516 97.2524 26.0472C97.1709 24.692 96.8843 23.7393 96.3923 23.1891C95.9004 22.6388 95.1375 22.3927 94.1036 22.4508L92.7311 22.5279L93.169 29.8205ZM93.6767 38.2819L94.9473 38.2105C96.2178 38.1392 97.1381 37.7475 97.7074 37.0357C98.2937 36.3228 98.5435 35.2465 98.4573 33.8066C98.3758 32.4514 98.0214 31.5025 97.394 30.9599C96.7666 30.4172 95.7745 30.184 94.419 30.2601L93.1991 30.3287L93.6767 38.2819Z" fill="black"/>
        <path d="M103.329 38.1743L103.294 37.9225L103.842 37.6166C104.112 37.46 104.284 37.2825 104.359 37.084C104.449 36.8665 104.471 36.59 104.425 36.2542L102.625 23.1116C102.579 22.776 102.493 22.5227 102.367 22.3518C102.256 22.1619 102.032 22.03 101.697 21.9562L101.087 21.809L101.053 21.5572L113.113 19.9052L113.795 23.7618L113.543 23.7963L112.136 21.5779C111.944 21.2965 111.751 21.0749 111.558 20.9133C111.364 20.7517 111.1 20.6938 110.764 20.7398L106.233 21.3606L107.229 28.6369L109.923 28.2678C110.259 28.2219 110.499 28.1034 110.644 27.9126C110.803 27.7027 110.929 27.4375 111.022 27.1169L111.388 26.0409L111.639 26.0064L112.261 30.5383L112.009 30.5728L111.36 29.5843C111.168 29.3029 110.976 29.0897 110.786 28.9449C110.593 28.7833 110.328 28.7254 109.992 28.7714L107.298 29.1404L108.371 36.9706L113.457 36.2739C113.793 36.228 114.041 36.1084 114.202 35.9153C114.362 35.7054 114.478 35.4328 114.552 35.0978L115.26 32.5897L115.512 32.5553L115.892 36.4533L103.329 38.1743Z" fill="black"/>
        <path d="M116.312 36.5693L116.251 36.3226L116.814 35.9492C117.111 35.7369 117.327 35.5181 117.464 35.2927C117.597 35.0509 117.678 34.7431 117.709 34.3693L119.219 18.5361L121.316 18.022L129.926 31.4799C130.146 31.8097 130.363 32.0531 130.576 32.2102C130.785 32.3509 131.078 32.4447 131.456 32.4917L131.777 32.5179L131.837 32.7647L125.567 34.3011L125.507 34.0543L125.847 33.8401C126.161 33.6238 126.321 33.3924 126.331 33.1459C126.353 32.8789 126.274 32.5929 126.095 32.288L124.063 29.0181L118.584 30.361L118.252 34.1315C118.226 34.5217 118.255 34.8198 118.341 35.0256C118.443 35.2274 118.682 35.3518 119.06 35.3987L119.657 35.4878L119.718 35.7346L116.312 36.5693ZM118.636 29.8249L123.795 28.5607L119.42 21.4955L118.636 29.8249Z" fill="black"/>
        <path d="M133.747 32.1263L133.648 31.8922L134.32 31.3287C134.568 31.1309 134.708 30.8961 134.74 30.6244C134.765 30.3371 134.712 30.0374 134.58 29.7252L129.807 18.4655C129.476 18.1642 129.217 17.9432 129.029 17.8025C128.856 17.6552 128.68 17.5457 128.502 17.474C128.318 17.3868 128.074 17.2884 127.77 17.1787L127.203 16.9504L127.104 16.7163L131.243 14.9497L143.502 22.2401L139.761 13.415C139.628 13.1028 139.455 12.8452 139.24 12.6421C139.041 12.4324 138.768 12.355 138.424 12.4101L137.563 12.5287L137.464 12.2946L140.807 10.8673L140.907 11.1014L140.365 11.5816C140.124 11.795 140.022 12.032 140.059 12.2928C140.096 12.5535 140.18 12.8399 140.313 13.152L146.148 26.9165L144.838 27.4754L130.695 18.9985L135.141 29.4857C135.273 29.7978 135.432 30.0432 135.618 30.2218C135.804 30.4003 136.066 30.4732 136.402 30.4404L137.202 30.375L137.301 30.6092L133.747 32.1263Z" fill="black"/>
        <path d="M5.42113 11.1078C8.25588 11.1078 10.5528 13.3328 10.5528 16.079C10.5528 18.8252 8.25588 21.0502 5.42113 21.0502C2.58635 21.0502 0.289551 18.8252 0.289551 16.079C0.289551 13.3328 2.58635 11.1078 5.42113 11.1078ZM5.42113 20.4087C7.88552 20.4087 9.8906 18.4664 9.8906 16.079C9.8906 13.6916 7.88552 11.7492 5.42113 11.7492C2.95673 11.7492 0.95169 13.6916 0.95169 16.079C0.95169 18.4664 2.95673 20.4087 5.42113 20.4087ZM3.55473 17.4781C4.01822 18.0154 4.69899 18.324 5.42113 18.324C6.14327 18.324 6.82403 18.0154 7.28752 17.4781C7.40548 17.3418 7.61443 17.3238 7.75312 17.438C7.8938 17.5523 7.91241 17.7528 7.79452 17.8891C7.20685 18.5726 6.33985 18.9655 5.42113 18.9655C4.50241 18.9655 3.63542 18.5726 3.04571 17.8871C2.92776 17.7508 2.94639 17.5483 3.08709 17.4361C3.2278 17.3238 3.43678 17.3418 3.55473 17.4781ZM7.07647 15.7582C6.71023 15.7582 6.41434 15.4716 6.41434 15.1169C6.41434 14.762 6.71023 14.4753 7.07647 14.4753C7.4427 14.4753 7.73862 14.762 7.73862 15.1169C7.73862 15.4716 7.4427 15.7582 7.07647 15.7582ZM3.76578 15.7582C3.39953 15.7582 3.10364 15.4716 3.10364 15.1169C3.10364 14.762 3.39953 14.4753 3.76578 14.4753C4.13203 14.4753 4.42792 14.762 4.42792 15.1169C4.42792 15.4716 4.13203 15.7582 3.76578 15.7582Z" fill="black"/>
        <path d="M154.579 11.1078C157.414 11.1078 159.711 13.3328 159.711 16.079C159.711 18.8252 157.414 21.0502 154.579 21.0502C151.745 21.0502 149.448 18.8252 149.448 16.079C149.448 13.3328 151.745 11.1078 154.579 11.1078ZM154.579 20.4087C157.044 20.4087 159.049 18.4664 159.049 16.079C159.049 13.6916 157.044 11.7492 154.579 11.7492C152.115 11.7492 150.11 13.6916 150.11 16.079C150.11 18.4664 152.115 20.4087 154.579 20.4087ZM152.713 17.4781C153.177 18.0154 153.857 18.324 154.579 18.324C155.301 18.324 155.982 18.0154 156.446 17.4781C156.563 17.3418 156.773 17.3238 156.911 17.438C157.052 17.5523 157.069 17.7528 156.952 17.8891C156.364 18.5726 155.498 18.9655 154.579 18.9655C153.66 18.9655 152.794 18.5726 152.204 17.8871C152.086 17.7508 152.105 17.5483 152.245 17.4361C152.386 17.3238 152.595 17.3418 152.713 17.4781ZM156.234 15.7582C155.868 15.7582 155.573 15.4716 155.573 15.1169C155.573 14.762 155.868 14.4753 156.234 14.4753C156.601 14.4753 156.896 14.762 156.896 15.1169C156.896 15.4716 156.601 15.7582 156.234 15.7582ZM152.924 15.7582C152.557 15.7582 152.262 15.4716 152.262 15.1169C152.262 14.762 152.557 14.4753 152.924 14.4753C153.29 14.4753 153.586 14.762 153.586 15.1169C153.586 15.4716 153.29 15.7582 152.924 15.7582Z" fill="black"/>
    </g>
</svg>
