<svg width="19" height="19" viewBox="0 0 19 19" fill="none" xmlns="http://www.w3.org/2000/svg">
    <g clip-path="url(#clip0_1190_366)">
        <path d="M14.0521 0.791656C11.9446 0.791656 10.2039 2.74918 9.5 3.67305C8.79607 2.74918 7.05542 0.791656 4.9479 0.791656C2.21962 0.791656 0 3.30003 0 6.38281C0 8.06472 0.667598 9.63218 1.83613 10.7049C1.85313 10.7343 1.87402 10.7613 1.89837 10.7857L9.22053 18.0928C9.29783 18.1697 9.39873 18.2083 9.5 18.2083C9.60127 18.2083 9.70254 18.1697 9.77988 18.0924L17.3456 10.5294L17.4236 10.4536C17.4855 10.3953 17.5466 10.3361 17.615 10.2604C17.6436 10.2322 17.6671 10.2004 17.6853 10.166C18.5338 9.12698 19 7.78677 19 6.38281C19 3.30003 16.7804 0.791656 14.0521 0.791656ZM17.0266 9.72073C17.0158 9.73349 17.0057 9.747 16.9969 9.76092C16.9598 9.80345 16.9192 9.84093 16.879 9.87922L9.49963 17.2532L2.54819 10.3156C2.52578 10.2715 2.49446 10.2314 2.4562 10.1977C1.39817 9.27386 0.791654 7.88341 0.791654 6.38281C0.791654 3.73643 2.65603 1.58335 4.9479 1.58335C7.21391 1.58335 9.14783 4.53896 9.16717 4.56872C9.3133 4.79446 9.6867 4.79446 9.83283 4.56872C9.85217 4.53896 11.7861 1.58335 14.0521 1.58335C16.344 1.58335 18.2083 3.73647 18.2083 6.38281C18.2083 7.62984 17.7885 8.81541 17.0266 9.72073Z" fill="black"/>
    </g>
    <defs>
        <clipPath id="clip0_1190_366">
            <rect width="19" height="19" fill="white"/>
        </clipPath>
    </defs>
</svg>
