<svg width="181" height="23" viewBox="0 0 181 23" fill="none" xmlns="http://www.w3.org/2000/svg">
    <path d="M9.74848 22.1451L0 0.859195H3.95989L10.5597 15.4932L17.1595 0.859195H21.1194L11.3709 22.1451H9.74848Z" fill="white"/>
    <path d="M42.0958 22.1451H38.5759V0.859195H42.0958V22.1451Z" fill="white"/>
    <path d="M68.4896 9.46501L69.2596 9.88075C70.3871 10.4905 71.3908 11.1372 72.2708 11.8209C73.1507 12.4953 73.829 13.2621 74.3057 14.1213C74.6999 14.8419 74.8969 15.6595 74.8969 16.5742C74.8969 16.7682 74.8878 16.9668 74.8694 17.17C74.7503 18.4727 74.3011 19.5767 73.522 20.4821C72.752 21.3875 71.7483 22.0527 70.5108 22.4777C69.5758 22.801 68.5675 22.9627 67.4859 22.9627C67.1376 22.9627 66.7801 22.9442 66.4134 22.9073C64.5985 22.7502 63.0677 22.2236 61.821 21.3274C61.3352 20.9856 60.909 20.6068 60.5423 20.1911L62.6873 17.2948C63.0356 17.7382 63.4527 18.1216 63.9385 18.445C64.7635 18.9901 65.7076 19.3134 66.7709 19.415C67.0092 19.4335 67.2384 19.4428 67.4584 19.4428C68.4025 19.4428 69.2733 19.2349 70.0708 18.8191C70.8683 18.3942 71.3037 17.7613 71.377 16.9206C71.3862 16.8467 71.3908 16.7774 71.3908 16.7127C71.3908 16.2693 71.2533 15.8443 70.9783 15.4378C70.7125 15.0221 70.3275 14.6156 69.8233 14.2183C69.3283 13.8118 68.7738 13.4284 68.1596 13.0681C67.6096 12.7447 67.0596 12.4352 66.5097 12.1396L66.2897 12.001C65.6572 11.6684 65.0339 11.3081 64.4197 10.9201C63.8147 10.5228 63.2693 10.0748 62.7835 9.57587C62.2977 9.06774 61.9219 8.48571 61.656 7.82976C61.4361 7.32164 61.3261 6.74422 61.3261 6.09752C61.3261 5.92198 61.3352 5.74183 61.3536 5.55705C61.4636 4.34679 61.876 3.30744 62.591 2.43901C63.306 1.57057 64.2272 0.923866 65.3547 0.498888C66.2255 0.166296 67.1605 0 68.1596 0C68.4346 0 68.7188 0.013858 69.0121 0.041574C70.5887 0.180154 71.9041 0.651325 72.9582 1.45509C73.2791 1.70453 73.5678 1.97245 73.8245 2.25885L71.762 5.05817C71.5145 4.75329 71.235 4.48537 70.9233 4.2544C70.2725 3.79247 69.5437 3.52455 68.7371 3.45064C68.5721 3.43216 68.4117 3.42292 68.2559 3.42292C67.4492 3.42292 66.6976 3.64927 66.0009 4.10196C65.3043 4.54542 64.9193 5.15979 64.846 5.94508C64.8368 6.00975 64.8322 6.07904 64.8322 6.15295C64.8322 6.57793 64.9697 6.96595 65.2447 7.31702C65.5197 7.66809 65.9276 8.00992 66.4684 8.34251C67.0184 8.6751 67.6509 9.02617 68.3659 9.39572L68.4896 9.46501Z" fill="white"/>
    <path d="M97.1108 12.5692V22.1451H93.5909V0.859195H97.1108V10.4351L105.031 0.859195H109.43L100.631 11.5021L109.43 22.1451H105.031L97.1108 12.5692Z" fill="white"/>
    <path d="M137.955 0.859195L147.704 22.1451H143.744L137.144 7.51103L130.544 22.1451H126.585L136.333 0.859195H137.955Z" fill="white"/>
    <path d="M166.604 0.859195L177.48 14.2599V0.859195H181V22.1451H179.556L168.68 8.74439V22.1451H165.16V0.859195H166.604Z" fill="white"/>
</svg>
