<svg width="64" height="8" viewBox="0 0 64 8" fill="none" xmlns="http://www.w3.org/2000/svg">
    <path d="M3.44698 7.71515L0 0.299336H1.40018L3.73382 5.39771L6.06746 0.299336H7.46764L4.02066 7.71515H3.44698Z" fill="black"/>
    <path d="M14.8847 7.71515H13.6401V0.299336H14.8847V7.71515Z" fill="black"/>
    <path d="M24.2173 3.29753L24.4896 3.44237C24.8882 3.6548 25.2431 3.8801 25.5543 4.11829C25.8655 4.35325 26.1053 4.6204 26.2738 4.91973C26.4132 5.17079 26.4829 5.45564 26.4829 5.77429C26.4829 5.84188 26.4797 5.91108 26.4732 5.98189C26.431 6.43573 26.2722 6.82036 25.9967 7.13579C25.7245 7.45122 25.3696 7.68296 24.932 7.83102C24.6014 7.94367 24.2449 8 23.8624 8C23.7393 8 23.6128 7.99356 23.4832 7.98069C22.8414 7.92597 22.3002 7.74251 21.8594 7.4303C21.6876 7.3112 21.5369 7.17924 21.4072 7.0344L22.1657 6.02535C22.2888 6.17984 22.4363 6.31342 22.6081 6.42607C22.8998 6.61597 23.2336 6.72863 23.6096 6.76403C23.6939 6.77047 23.7749 6.77369 23.8527 6.77369C24.1865 6.77369 24.4944 6.70127 24.7764 6.55643C25.0584 6.40837 25.2124 6.18789 25.2383 5.89499C25.2415 5.86924 25.2431 5.8451 25.2431 5.82257C25.2431 5.66808 25.1945 5.52002 25.0973 5.37839C25.0033 5.23355 24.8672 5.09193 24.6889 4.95353C24.5139 4.81191 24.3178 4.67833 24.1006 4.55281C23.9062 4.44015 23.7117 4.33233 23.5172 4.22933L23.4394 4.18105C23.2158 4.06518 22.9954 3.93965 22.7782 3.80447C22.5643 3.66606 22.3715 3.50996 22.1997 3.33615C22.0279 3.15912 21.895 2.95635 21.801 2.72782C21.7232 2.55079 21.6844 2.34963 21.6844 2.12432C21.6844 2.06317 21.6876 2.0004 21.6941 1.93603C21.733 1.51438 21.8788 1.15228 22.1316 0.849728C22.3844 0.547174 22.7102 0.321867 23.1088 0.173808C23.4168 0.057936 23.7474 0 24.1006 0C24.1979 0 24.2984 0.004828 24.4021 0.014484C24.9595 0.062764 25.4247 0.226916 25.7974 0.50694C25.9108 0.593844 26.0129 0.687186 26.1037 0.786964L25.3744 1.76222C25.2869 1.656 25.188 1.56266 25.0779 1.4822C24.8477 1.32126 24.5901 1.22792 24.3048 1.20217C24.2465 1.19574 24.1898 1.19252 24.1347 1.19252C23.8494 1.19252 23.5837 1.27137 23.3373 1.42909C23.091 1.58358 22.9549 1.79763 22.929 2.07121C22.9257 2.09374 22.9241 2.11788 22.9241 2.14363C22.9241 2.29169 22.9727 2.42688 23.07 2.54919C23.1672 2.67149 23.3114 2.79059 23.5026 2.90646C23.6971 3.02233 23.9208 3.14464 24.1736 3.27339L24.2173 3.29753Z" fill="black"/>
    <path d="M34.3375 4.379V7.71515H33.0929V0.299336H34.3375V3.63549L37.1379 0.299336H38.6937L35.5821 4.00724L38.6937 7.71515H37.1379L34.3375 4.379Z" fill="black"/>
    <path d="M48.7798 0.299336L52.2268 7.71515H50.8266L48.493 2.61678L46.1593 7.71515H44.7592L48.2061 0.299336H48.7798Z" fill="black"/>
    <path d="M58.9098 0.299336L62.7554 4.96801V0.299336H64V7.71515H63.4895L59.6439 3.04647V7.71515H58.3993V0.299336H58.9098Z" fill="black"/>
</svg>
